<?xml version="1.0" standalone="no"?><!DOCTYPE svg PUBLIC "-//W3C//DTD SVG 1.1//EN" "http://www.w3.org/Graphics/SVG/1.1/DTD/svg11.dtd"><svg t="1615686656487" class="icon" viewBox="0 0 1024 1024" version="1.1" xmlns="http://www.w3.org/2000/svg" p-id="1219" xmlns:xlink="http://www.w3.org/1999/xlink" width="128" height="128"><defs><style type="text/css"></style></defs><path d="M729.9 67l-37.8 4.2c-6.2 0.7-12.3-1.2-17-5.2l-23.4-20.1c-8.9-7.6-22.1-7.1-30.4 1.2L611 57.3c-8.4 8.4-21.8 8.8-30.7 0.9l-29.2-26c-8.5-7.5-21.2-7.5-29.7 0l-31.6 28.1c-7.8 6.9-19.4 7.6-27.9 1.5l-13.2-9.5c-10.3-7.3-24.6-4.7-31.6 5.8l-17.6 26.4c-5.6 8.4-16.1 12-25.7 8.8L348.5 85c-10.6-3.5-22.1 1.3-27.1 11.2L303 133c-3.8 7.6-11.5 12.4-20 12.4h-30.5c-9.3 0-17.7 5.8-20.9 14.5l-9.1 24.2c-3.3 8.7-11.6 14.5-20.9 14.5h-8.3c-9.6 0-18.2 6.2-21.2 15.3l-9.8 29.3c-3 9.1-11.6 15.3-21.2 15.3h-1c-9.6 0-18.2 6.2-21.2 15.3l-13.2 39.5c-1.1 3.3-2.9 6.3-5.4 8.7l-9.7 9.7c-4.2 4.2-6.6 9.9-6.6 15.8v33.2c0 6.8-3.1 13.2-8.4 17.5l-15.1 12.1c-6.1 4.9-9.2 12.5-8.2 20.2l3.7 29.9c0.9 6.8-1.5 13.7-6.4 18.6l-2.4 2.4c-6 6-8.1 14.8-5.4 22.9l5.5 16.4c2.2 6.5 1.2 13.7-2.6 19.5l-1.7 2.6c-3.5 5.2-4.6 11.7-3.1 17.8l8.7 34.6c1.4 5.8 0.5 11.8-2.5 16.9l-7.9 13.2c-4.4 7.4-4.2 16.7 0.6 23.9l15 22.5c2.4 3.7 3.8 8 3.8 12.4v18.4c0 5.2 1.8 10.3 5.2 14.3L84.5 743c4 4.8 5.8 10.9 5 17.1L86 787.9c-1.2 9.4 3.7 18.5 12.2 22.8l28.2 14.1c6.8 3.4 11.4 10 12.2 17.5l3.5 31.9c1.1 9.5 8 17.3 17.4 19.4l30.3 6.7c8.5 1.9 15.1 8.5 17 17l4.8 21.7c2.9 12.9 16.3 20.6 28.9 16.4l23.2-7.7c8-2.7 16.9-0.6 22.9 5.4l28.1 28.1c5.4 5.4 13.2 7.7 20.7 6l37.8-8.4c6.4-1.4 13 0 18.3 3.9l7.3 5.5c6.8 5.1 15.8 5.9 23.4 2.1l14.7-7.4c7.8-3.9 17.2-2.9 24 2.5l8.9 7.1c7.8 6.3 18.8 6.6 27 0.7l21.8-15.6c6.7-4.8 15.6-5.5 23-1.8l12 6c9.3 4.6 20.5 2.3 27.2-5.7l11.7-14.1c6.1-7.3 16.1-10 25-6.6l19.5 7.3c10.7 4 22.7-0.7 27.9-10.9l11.4-22.8c3.8-7.6 11.5-12.4 20-12.4h20.3c7.7 0 14.9-4 19-10.5l20.1-32.2c4.1-6.5 11.3-10.5 19-10.5h8.1c11.1 0 20.6-8.2 22.1-19.2l1.9-13c1.2-8.7 7.5-15.9 16-18.3l18.7-5.3c8.5-2.4 14.7-9.6 16-18.3l2.8-19.4c1.1-7.9 6.4-14.6 13.8-17.6l9.2-3.7c7.4-3 12.7-9.7 13.8-17.6l3.6-25c0.8-5.6 3.7-10.7 8.2-14.3l17.9-14.3c5.3-4.2 8.4-10.7 8.4-17.5v-40.8c0-5.3 1.9-10.5 5.4-14.6l25.9-30.2c5.3-6.2 6.8-14.8 4-22.4l-10.7-28.4c-2.9-7.6-1.3-16.2 4-22.4l19.9-23.2c6.7-7.8 7.2-19.2 1.2-27.6l-16.1-22.6c-4.3-6.1-5.4-13.9-2.7-20.9l10.3-27.4c3.3-8.8 0.7-18.7-6.4-24.8l-23-19.5c-7.1-6.1-9.7-16-6.4-24.8l7.4-19.7c4-10.7-0.7-22.7-10.9-27.9l-50.5-25.3c-7-3.5-11.6-10.4-12.3-18.1l-4.4-52.6c-0.7-8.9-6.7-16.5-15.2-19.4l-59.4-19.8c-4.2-1.4-7.9-4-10.6-7.5L750 75.5c-4.8-6.2-12.4-9.4-20.1-8.5z" fill="#7CB945" p-id="1220"></path><path d="M483.8 1024c-10.9 0-21.7-3.6-30.6-10.7l-6.7-5.4-12.3 6.2c-16.7 8.3-36.3 6.6-51.3-4.6l-5.8-4.3-35.9 8c-16.4 3.6-33.3-1.3-45.2-13.2l-26.2-26.2-20.7 6.9c-13.1 4.4-27.6 3-39.6-3.8s-20.7-18.5-23.7-32l-4.2-19.1-27.7-6.2c-20.4-4.5-35.7-21.6-38-42.4l-3.3-29.6-26.1-13c-18.5-9.3-29.3-29.3-26.7-49.9l3.2-26-20.7-24.8c-7.3-8.8-11.4-19.9-11.4-31.3v-17.1l-14.3-21.4c-10.4-15.7-10.9-36.2-1.2-52.3l7-11.7-8.3-33.1c-3.3-13.4-0.9-27.6 6.8-39l0.6-0.9-4.8-14.4c-5.9-17.7-1.4-36.9 11.8-50.1l1-1-3.5-27.9c-2.1-16.8 4.8-33.7 18-44.3l13.5-10.8v-31.1c0-13.1 5.1-25.4 14.4-34.6l8.9-9 12.9-38.6c6.5-19.4 24.1-32.6 44.4-33.4l8.8-26.4c6.7-20 25.3-33.5 46.5-33.5h5.3l8-21.4c7.1-19 25.5-31.8 45.8-31.8h27.9l17.2-34.4c10.8-21.7 36.3-32.2 59.3-24.6l22.2 7.4 15.8-23.7c7.4-11.1 18.7-18.6 31.9-21 13.2-2.4 26.4 0.5 37.3 8.3l10.5 7.5 29.1-25.9c18.5-16.5 46.5-16.5 65.1 0L595 35.7l7.5-7.5c18-18 47.2-19.1 66.5-2.6l22 18.9 35.9-4c16.8-1.9 33.7 5.3 44.1 18.6l33.9 43.6 58.2 19.4c18.6 6.2 31.7 22.8 33.3 42.4l4.2 50.2 48.4 24.2c22.5 11.2 32.8 37.4 23.9 61l-6.3 16.9 20.5 17.6c15.6 13.3 21.2 35.2 14 54.4l-9.5 25.3 14.8 20.8c13.1 18.4 12 43.2-2.7 60.3l-18.3 21.3 9.8 26.1c6.3 16.7 2.9 35.5-8.7 49.1l-24.9 29V660c0 15-6.7 28.9-18.4 38.2l-16.6 13.3-3.3 23.3c-2.5 17.3-14.1 32-30.3 38.5l-7 2.8-2.4 17c-2.7 19.1-16.5 34.9-35 40.2l-16 4.6-1.5 10.3c-3.4 24-24.3 42-48.5 42H777l-18.9 30.2c-9 14.4-24.5 23-41.5 23h-17.7l-10.2 20.5c-11.2 22.5-37.4 32.8-61 23.9l-16.7-6.2-9.8 11.8c-14.6 17.5-39.1 22.7-59.5 12.4l-9.7-4.9-19.8 14.1c-8.5 6-18.4 9-28.4 9z m-36.9-70c10.9 0 21.8 3.6 30.6 10.7l6.4 5.1 19.2-13.7c14.8-10.6 34.1-12.1 50.4-4l9 4.5 9.6-11.5c13.3-16 35.3-21.8 54.8-14.5l15.9 6 9.7-19.4c8.3-16.7 25.1-27.1 43.8-27.1h18l18.9-30.2c9-14.4 24.5-23 41.5-23h4.4l1.3-9.4c2.7-19.1 16.5-34.9 35-40.2l16-4.6 2.4-16.7c2.5-17.3 14.1-32.1 30.3-38.5l7-2.8 3.2-22.6c1.8-12.4 8.1-23.5 17.9-31.3l16.4-13.1v-38.8c0-11.7 4.2-23 11.8-31.9l24.3-28.3-9.8-26.1c-6.3-16.7-2.9-35.5 8.7-49.1l17.7-20.7-14.3-19.7c-9.5-13.3-11.7-30.4-6-45.7l9.2-24.6-20.5-17.6c-15.6-13.3-21.2-35.2-14-54.4l6-16.1-47.1-23.6c-15.2-7.6-25.5-22.8-26.9-39.7l-4.1-49.8-56.7-18.9c-9.2-3.1-17.2-8.7-23.2-16.4l-33.3-42.8-35.4 3.9c-13.5 1.5-27-2.7-37.3-11.5l-20.5-17.6-7.6 7.6c-18.3 18.3-47.8 19.2-67.2 2L536 54.4 507.2 80c-17.2 15.3-42.3 16.6-61 3.2l-9.7-6.9-15.2 22.8c-12.2 18.3-35.3 26.3-56.2 19.3l-21.7-7.2-16.7 33.5c-8.3 16.7-25.1 27.1-43.8 27.1h-27.6l-8 21.4c-7.1 19-25.5 31.8-45.8 31.8h-5.2l-8.8 26.4c-6.5 19.4-24.1 32.6-44.4 33.4l-12.2 36.7c-2.4 7.2-6.5 13.8-11.8 19.1l-8.4 8.4v31.4c0 15-6.7 28.9-18.4 38.2L79 429.5l3.4 27.6c1.9 15.1-3.2 29.9-14 40.7l-0.6 0.6 4.6 13.9c4.8 14.4 2.7 30-5.7 42.6L66 556l8.2 32.8c3.2 12.7 1.2 25.9-5.5 37.1l-6.5 10.9 13.5 20.3c5.4 8.1 8.2 17.5 8.2 27.2v16.8l20.9 25c8.6 10.4 12.6 24 11 37.4l-3.1 24.9 25.5 12.7c14.9 7.5 24.9 21.8 26.8 38.4l3.2 28.9 27.4 6.1c18.5 4.1 33.1 18.7 37.2 37.2l3.8 17.2 18.8-6.2c17.7-5.9 36.9-1.4 50.1 11.8l26.4 26.5 35.5-7.9c14-3.1 28.6 0 40 8.6l5.2 3.9 12.4-6.2c7-3.7 14.5-5.4 21.9-5.4z" fill="#3F2D26" p-id="1221"></path><path d="M720.9 274.6c-11.7-14.8-9.5-36.7 4.9-48.7L874 102.7c14.4-12 35.8-9.7 47.5 5.1 11.7 14.8 9.5 36.7-4.9 48.7L768.3 279.7c-14.4 11.9-35.7 9.7-47.4-5.1z" fill="#907935" p-id="1222"></path><path d="M747.2 304.5c-1.8 0-3.6-0.1-5.3-0.3-13.4-1.4-25.5-8.1-33.9-18.8-17.5-22.1-14.2-54.7 7.4-72.7L863.5 89.4c21.6-18 53.4-14.6 70.9 7.6 8.5 10.7 12.4 24.2 11 37.9-1.4 13.8-7.9 26.1-18.3 34.8L778.8 292.9c-9 7.6-20.1 11.6-31.6 11.6z m148-192.4c-3.8 0-7.6 1.3-10.7 3.9L736.3 239.2c-3.5 2.9-5.7 7.1-6.2 11.8-0.5 4.7 0.8 9.2 3.7 12.8 2.8 3.6 6.9 5.8 11.5 6.3s9-0.9 12.5-3.8L906 143.1c3.5-2.9 5.7-7.1 6.2-11.8 0.5-4.7-0.8-9.2-3.7-12.8-3.4-4.2-8.3-6.4-13.3-6.4z" fill="#3F2D26" p-id="1223"></path><path d="M189.590305 829.416949a370.2 442.5 44.999 1 0 625.778579-625.800424 370.2 442.5 44.999 1 0-625.778579 625.800424Z" fill="#FFF399" p-id="1224"></path><path d="M542.7 170.7c-61.1 6.4-103.6 23.6-110.6 26.5C316.2 245.3 251 328.6 231 356.2c-54.9 75.3-70.1 141.5-75 169.7 0 0-8.8 50.2 7.4 115 5.1 20.3 11.4 37 26.6 49.8 12.5 10.5 30.5 18 45.6 15.7 29-4.5 37.6-43.8 44.8-64.4 23.4-67.4 70.3-49 176.8-142.1 98.1-85.8 82-122.2 147.8-147.8 8.9-3.4 46.3-17.3 74.2-53.4 23-29.8 20.2-49.9 19.3-55.1-5.4-31-35.6-52.6-44.6-58.5-9-6-36.4-22.2-111.2-14.4zM848.3 476.3c-6.4 61.1-23.6 103.6-26.5 110.6C773.8 702.8 690.4 768 662.9 788c-75.3 54.9-141.5 70.1-169.7 75 0 0-50.2 8.8-115-7.4-20.3-5.1-37-11.4-49.8-26.6-10.5-12.5-18-30.5-15.7-45.6 4.5-29 43.8-37.6 64.4-44.8 67.4-23.4 49-70.3 142.1-176.8C605 463.7 641.4 479.8 667 414c3.4-8.9 17.3-46.3 53.4-74.2 29.8-23 49.9-20.2 55.1-19.3 31 5.4 52.6 35.6 58.5 44.6 5.9 9 22.2 36.4 14.3 111.2z" fill="#FCD74B" p-id="1225"></path></svg>